# xmcd CD database file
#
# Track frame offsets:
#	150
#	21335
#	40229
#	60712
#	84913
#	108122
#	127436
#	143188
#	162936
#	168796
#	183677
#	202496
#	219833
#	242647
#	266410
#	282713
#	298207
#
# Disc length: 4256 seconds
#
# Revision: 1
# Processed by: cddbd v1.4PL0 Copyright (c) Steve Scherf et al.
# Submitted via: CDex 1.51
#
DISCID=0c109e11
DTITLE=Jessica Williams - Jessica Williams
DYEAR=1999
DGENRE=Jazz
TTITLE0=If I Should Lose You
TTITLE1=My Favorite Things
TTITLE2=Stonewall Blues
TTITLE3=Mood Indigo
TTITLE4=In A Sentimental Mood
TTITLE5=We Kiss In A Shadow
TTITLE6=Nice Work If You Can Get It
TTITLE7=Jitterbug Waltz
TTITLE8=Theme From Rocky And Bullwinkle - Well You Needn't
TTITLE9=Take Five
TTITLE10=Taking A Chance On Love
TTITLE11=Gone With The Wind
TTITLE12=Song For My Father
TTITLE13=Goodbye Pork Pie Hat
TTITLE14=Yesterdays
TTITLE15=Night In Tunisia
TTITLE16=Spiritual
EXTD=YEAR: 1999
EXTT0=
EXTT1=
EXTT2=
EXTT3=
EXTT4=
EXTT5=
EXTT6=
EXTT7=
EXTT8=
EXTT9=
EXTT10=
EXTT11=
EXTT12=
EXTT13=
EXTT14=
EXTT15=
EXTT16=
PLAYORDER=
